<svg width="280" height="280" viewBox="0 0 280 280" fill="none" xmlns="http://www.w3.org/2000/svg">
<path opacity="0.3" fill-rule="evenodd" clip-rule="evenodd" d="M0 140.001C0 122.233 3.30974 105.239 9.34631 89.6003C9.767 88.5105 10.2009 87.4272 10.6479 86.3507C17.0588 70.9112 26.1534 56.867 37.3496 44.8002C43.9495 37.6871 51.2796 31.2611 59.2208 25.6415C76.1231 13.6804 95.7935 5.37229 117.082 1.86667C124.54 0.638695 132.196 0 140.001 0C147.806 0 155.461 0.638695 162.919 1.86667C184.208 5.37229 203.878 13.6804 220.78 25.6415C228.721 31.2611 236.052 37.6871 242.651 44.8002C253.848 56.867 262.942 70.9112 269.353 86.3507C269.8 87.4272 270.234 88.5105 270.655 89.6003C276.691 105.239 280.001 122.233 280.001 140.001C280.001 157.768 276.691 174.762 270.655 190.401H220.78C223.955 185.323 226.665 179.924 228.849 174.263C232.952 163.632 235.201 152.079 235.201 140.001C235.201 121.492 229.919 104.217 220.78 89.6003L220.684 89.4471C203.845 62.6282 174.005 44.8002 140.001 44.8002C105.996 44.8002 76.156 62.6282 59.3168 89.4471L59.2208 89.6003C50.0821 104.217 44.8002 121.492 44.8002 140.001C44.8002 152.079 47.0495 163.632 51.1521 174.263C53.3363 179.924 56.0458 185.323 59.2208 190.401H9.34631C3.30974 174.762 0 157.768 0 140.001ZM59.217 254.359C51.2758 248.739 43.9457 242.313 37.3458 235.2H242.648C236.048 242.313 228.718 248.739 220.776 254.359C197.953 270.509 170.083 280 139.997 280C109.91 280 82.04 270.509 59.217 254.359Z" fill="#D9D8DD"/>
</svg>
